<mxfile host="app.diagrams.net" modified="2021-05-21T10:05:44.870Z" agent="5.0 (Macintosh)" etag="PImHDjoyku-VPc5PEWUs" version="14.7.0" type="github">
  <diagram id="PafDu9gbkwaQ6fXAbo-y" name="Page-1">
    <mxGraphModel dx="1186" dy="651" grid="1" gridSize="10" guides="1" tooltips="1" connect="1" arrows="1" fold="1" page="1" pageScale="1" pageWidth="827" pageHeight="1169" math="0" shadow="0">
      <root>
        <mxCell id="0" />
        <mxCell id="1" parent="0" />
        <mxCell id="mM-ojXZiUKRPn2hI_IP4-1" value="Architectural structure of MPS ventilator" style="swimlane;html=1;startSize=20;horizontal=1;childLayout=treeLayout;horizontalTree=0;resizable=0;containerType=tree;" vertex="1" parent="1">
          <mxGeometry x="40" y="410" width="1246" height="289" as="geometry" />
        </mxCell>
        <mxCell id="mM-ojXZiUKRPn2hI_IP4-2" value="&lt;b&gt;Hradware of MPS ventilatore&lt;/b&gt;" style="whiteSpace=wrap;html=1;" vertex="1" parent="mM-ojXZiUKRPn2hI_IP4-1">
          <mxGeometry x="540.5" y="40" width="100" height="40" as="geometry" />
        </mxCell>
        <mxCell id="mM-ojXZiUKRPn2hI_IP4-3" value="Main control borad " style="whiteSpace=wrap;html=1;" vertex="1" parent="mM-ojXZiUKRPn2hI_IP4-1">
          <mxGeometry x="95" y="130" width="100" height="40" as="geometry" />
        </mxCell>
        <mxCell id="mM-ojXZiUKRPn2hI_IP4-4" value="" style="edgeStyle=elbowEdgeStyle;elbow=vertical;html=1;rounded=0;" edge="1" parent="mM-ojXZiUKRPn2hI_IP4-1" source="mM-ojXZiUKRPn2hI_IP4-2" target="mM-ojXZiUKRPn2hI_IP4-3">
          <mxGeometry relative="1" as="geometry" />
        </mxCell>
        <mxCell id="mM-ojXZiUKRPn2hI_IP4-5" value="BLDC Motor control" style="whiteSpace=wrap;html=1;" vertex="1" parent="mM-ojXZiUKRPn2hI_IP4-1">
          <mxGeometry x="390" y="130" width="100" height="40" as="geometry" />
        </mxCell>
        <mxCell id="mM-ojXZiUKRPn2hI_IP4-6" value="" style="edgeStyle=elbowEdgeStyle;elbow=vertical;html=1;rounded=0;" edge="1" parent="mM-ojXZiUKRPn2hI_IP4-1" source="mM-ojXZiUKRPn2hI_IP4-2" target="mM-ojXZiUKRPn2hI_IP4-5">
          <mxGeometry relative="1" as="geometry" />
        </mxCell>
        <mxCell id="mM-ojXZiUKRPn2hI_IP4-7" value="" style="edgeStyle=elbowEdgeStyle;elbow=vertical;html=1;rounded=0;" edge="1" parent="mM-ojXZiUKRPn2hI_IP4-1" source="mM-ojXZiUKRPn2hI_IP4-3" target="mM-ojXZiUKRPn2hI_IP4-8">
          <mxGeometry relative="1" as="geometry">
            <mxPoint x="-1959" y="570" as="sourcePoint" />
          </mxGeometry>
        </mxCell>
        <mxCell id="mM-ojXZiUKRPn2hI_IP4-8" value="MPS controller [MP6710]" style="whiteSpace=wrap;html=1;" vertex="1" parent="mM-ojXZiUKRPn2hI_IP4-1">
          <mxGeometry x="20" y="220" width="100" height="40" as="geometry" />
        </mxCell>
        <mxCell id="mM-ojXZiUKRPn2hI_IP4-9" value="" style="edgeStyle=elbowEdgeStyle;elbow=vertical;html=1;rounded=0;" edge="1" parent="mM-ojXZiUKRPn2hI_IP4-1" source="mM-ojXZiUKRPn2hI_IP4-3" target="mM-ojXZiUKRPn2hI_IP4-10">
          <mxGeometry relative="1" as="geometry">
            <mxPoint x="-1959" y="570" as="sourcePoint" />
          </mxGeometry>
        </mxCell>
        <mxCell id="mM-ojXZiUKRPn2hI_IP4-10" value="MPS DCDC Power modules [e.g.MPM54304]" style="whiteSpace=wrap;html=1;" vertex="1" parent="mM-ojXZiUKRPn2hI_IP4-1">
          <mxGeometry x="160" y="220" width="110" height="48.5" as="geometry" />
        </mxCell>
        <mxCell id="mM-ojXZiUKRPn2hI_IP4-11" value="" style="edgeStyle=elbowEdgeStyle;elbow=vertical;html=1;rounded=0;" edge="1" parent="mM-ojXZiUKRPn2hI_IP4-1" source="mM-ojXZiUKRPn2hI_IP4-5" target="mM-ojXZiUKRPn2hI_IP4-12">
          <mxGeometry relative="1" as="geometry">
            <mxPoint x="-1791" y="570" as="sourcePoint" />
          </mxGeometry>
        </mxCell>
        <mxCell id="mM-ojXZiUKRPn2hI_IP4-12" value="MPS motor driver module [MMP742077-24-C]" style="whiteSpace=wrap;html=1;" vertex="1" parent="mM-ojXZiUKRPn2hI_IP4-1">
          <mxGeometry x="310" y="220" width="110" height="49" as="geometry" />
        </mxCell>
        <mxCell id="mM-ojXZiUKRPn2hI_IP4-13" value="" style="edgeStyle=elbowEdgeStyle;elbow=vertical;html=1;rounded=0;" edge="1" parent="mM-ojXZiUKRPn2hI_IP4-1" source="mM-ojXZiUKRPn2hI_IP4-5" target="mM-ojXZiUKRPn2hI_IP4-14">
          <mxGeometry relative="1" as="geometry">
            <mxPoint x="-1791" y="570" as="sourcePoint" />
          </mxGeometry>
        </mxCell>
        <mxCell id="mM-ojXZiUKRPn2hI_IP4-14" value="MPS smart motor [EVKT-MSM942077-24] " style="whiteSpace=wrap;html=1;" vertex="1" parent="mM-ojXZiUKRPn2hI_IP4-1">
          <mxGeometry x="460" y="220" width="110" height="41.5" as="geometry" />
        </mxCell>
        <mxCell id="mM-ojXZiUKRPn2hI_IP4-15" value="" style="edgeStyle=elbowEdgeStyle;elbow=vertical;html=1;rounded=0;" edge="1" parent="mM-ojXZiUKRPn2hI_IP4-1" source="mM-ojXZiUKRPn2hI_IP4-2" target="mM-ojXZiUKRPn2hI_IP4-16">
          <mxGeometry relative="1" as="geometry">
            <mxPoint x="-1273" y="570" as="sourcePoint" />
          </mxGeometry>
        </mxCell>
        <mxCell id="mM-ojXZiUKRPn2hI_IP4-16" value="E-Stop" style="whiteSpace=wrap;html=1;" vertex="1" parent="mM-ojXZiUKRPn2hI_IP4-1">
          <mxGeometry x="594" y="130" width="100" height="40" as="geometry" />
        </mxCell>
        <mxCell id="mM-ojXZiUKRPn2hI_IP4-17" value="" style="edgeStyle=elbowEdgeStyle;elbow=vertical;html=1;rounded=0;" edge="1" parent="mM-ojXZiUKRPn2hI_IP4-1" source="mM-ojXZiUKRPn2hI_IP4-2" target="mM-ojXZiUKRPn2hI_IP4-18">
          <mxGeometry relative="1" as="geometry">
            <mxPoint x="-965" y="570" as="sourcePoint" />
          </mxGeometry>
        </mxCell>
        <mxCell id="mM-ojXZiUKRPn2hI_IP4-18" value="Power switch" style="whiteSpace=wrap;html=1;" vertex="1" parent="mM-ojXZiUKRPn2hI_IP4-1">
          <mxGeometry x="734" y="130" width="100" height="40" as="geometry" />
        </mxCell>
        <mxCell id="mM-ojXZiUKRPn2hI_IP4-19" value="" style="edgeStyle=elbowEdgeStyle;elbow=vertical;html=1;rounded=0;" edge="1" parent="mM-ojXZiUKRPn2hI_IP4-1" source="mM-ojXZiUKRPn2hI_IP4-2" target="mM-ojXZiUKRPn2hI_IP4-20">
          <mxGeometry relative="1" as="geometry">
            <mxPoint x="-817" y="490" as="sourcePoint" />
          </mxGeometry>
        </mxCell>
        <mxCell id="mM-ojXZiUKRPn2hI_IP4-20" value="User interface" style="whiteSpace=wrap;html=1;" vertex="1" parent="mM-ojXZiUKRPn2hI_IP4-1">
          <mxGeometry x="986" y="130" width="100" height="40" as="geometry" />
        </mxCell>
        <mxCell id="mM-ojXZiUKRPn2hI_IP4-21" value="" style="edgeStyle=elbowEdgeStyle;elbow=vertical;html=1;rounded=0;" edge="1" parent="mM-ojXZiUKRPn2hI_IP4-1" source="mM-ojXZiUKRPn2hI_IP4-20" target="mM-ojXZiUKRPn2hI_IP4-22">
          <mxGeometry relative="1" as="geometry">
            <mxPoint x="-369" y="490" as="sourcePoint" />
          </mxGeometry>
        </mxCell>
        <mxCell id="mM-ojXZiUKRPn2hI_IP4-22" value="Display: monitor, setpoins, mode" style="whiteSpace=wrap;html=1;" vertex="1" parent="mM-ojXZiUKRPn2hI_IP4-1">
          <mxGeometry x="846" y="220" width="100" height="40" as="geometry" />
        </mxCell>
        <mxCell id="mM-ojXZiUKRPn2hI_IP4-23" value="" style="edgeStyle=elbowEdgeStyle;elbow=vertical;html=1;rounded=0;" edge="1" parent="mM-ojXZiUKRPn2hI_IP4-1" source="mM-ojXZiUKRPn2hI_IP4-20" target="mM-ojXZiUKRPn2hI_IP4-24">
          <mxGeometry relative="1" as="geometry">
            <mxPoint x="-369" y="490" as="sourcePoint" />
          </mxGeometry>
        </mxCell>
        <mxCell id="mM-ojXZiUKRPn2hI_IP4-24" value="Buttons: silence alarm, setting" style="whiteSpace=wrap;html=1;" vertex="1" parent="mM-ojXZiUKRPn2hI_IP4-1">
          <mxGeometry x="986" y="220" width="100" height="40" as="geometry" />
        </mxCell>
        <mxCell id="mM-ojXZiUKRPn2hI_IP4-25" value="" style="edgeStyle=elbowEdgeStyle;elbow=vertical;html=1;rounded=0;" edge="1" parent="mM-ojXZiUKRPn2hI_IP4-1" source="mM-ojXZiUKRPn2hI_IP4-20" target="mM-ojXZiUKRPn2hI_IP4-26">
          <mxGeometry relative="1" as="geometry">
            <mxPoint x="522.5" y="580" as="sourcePoint" />
          </mxGeometry>
        </mxCell>
        <mxCell id="mM-ojXZiUKRPn2hI_IP4-26" value="Selection swctch: Volume, assist mode" style="whiteSpace=wrap;html=1;" vertex="1" parent="mM-ojXZiUKRPn2hI_IP4-1">
          <mxGeometry x="1126" y="220" width="100" height="40" as="geometry" />
        </mxCell>
      </root>
    </mxGraphModel>
  </diagram>
</mxfile>
